<svg xmlns="http://www.w3.org/2000/svg" width="130" height="27.918" viewBox="0 0 130 27.918">
  <g id="g10" transform="translate(-84.129 458.435)">
    <g id="g12" transform="translate(84.13 -458.435)">
      <path id="path14" d="M215.277-452.854a2.983,2.983,0,0,0,.029-.491,2.277,2.277,0,0,0-2.372-2.487c-1.591,0-2.6,1.157-2.805,2.979Zm.376,3.847,2.95.954c-.636,2.689-3.008,3.644-5.61,3.644-3.731,0-6.276-2.487-6.276-6.854,0-4.569,2.458-7.172,6.362-7.172,3.673,0,5.524,2.458,5.524,5.842a6.92,6.92,0,0,1-.2,1.792h-8.358c.087,2.228,1.128,3.731,3.065,3.731a2.41,2.41,0,0,0,2.545-1.937" transform="translate(-193.038 458.435)" fill="#ad242f"/>
      <path id="path16" d="M334.094-457.4v19.375h-3.5V-457.4h3.5" transform="translate(-303.094 457.515)" fill="#ad242f"/>
      <path id="path18" d="M389.869-405.406a4.159,4.159,0,0,1,4.28-2.892c2.111,0,3.962,1.214,3.962,4.193v9.486H394.67v-8.271c0-1.533-.521-2.487-1.967-2.487-1.388,0-2.69.752-2.69,3.3v7.461h-3.441v-13.361h2.892l.4,2.574" transform="translate(-352.825 413.892)" fill="#ad242f"/>
      <path id="path20" d="M513.231-405.406a4.158,4.158,0,0,1,4.28-2.892c2.111,0,3.962,1.214,3.962,4.193v9.486h-3.441v-8.271c0-1.533-.521-2.487-1.966-2.487-1.388,0-2.69.752-2.69,3.3v7.461h-3.441v-13.361h2.892l.4,2.574" transform="translate(-462.423 413.892)" fill="#ad242f"/>
      <path id="path22" d="M628.931-401.328c0,2.95.955,4.367,2.921,4.367,2,0,2.949-1.417,2.949-4.367,0-2.863-.983-4.193-2.949-4.193C629.914-405.521,628.931-404.191,628.931-401.328Zm-3.412-.029c0-4.54,2.516-6.94,6.333-6.94s6.333,2.4,6.333,6.94-2.516,7.086-6.333,7.086-6.333-2.545-6.333-7.086" transform="translate(-565.11 413.892)" fill="#ad242f"/>
      <path id="path24" d="M735.145-405.444h3.673l2,6.506a29.607,29.607,0,0,1,.955,4.309h.116a29.641,29.641,0,0,1,.954-4.309l2.025-6.506h3.557l-4.743,13.361H739.83l-4.685-13.361" transform="translate(-662.504 411.357)" fill="#ad242f"/>
      <path id="path26" d="M856.266-400.316c-3.008-.087-4.164.665-4.164,2.025a1.51,1.51,0,0,0,1.706,1.532,2.2,2.2,0,0,0,2.458-2Zm3.441,1.938c0,.955.405,1.244.983,1.244a1.858,1.858,0,0,0,.81-.2v2.545a3.784,3.784,0,0,1-1.937.405c-1.648,0-2.689-.636-3.037-2.111-.636,1.648-2.14,2.227-3.9,2.227-2.372,0-3.963-1.359-3.963-3.644,0-2.979,2.372-4.627,7.606-4.338v-1.417c0-1.3-.637-2-1.822-2-1.214,0-1.851.752-1.937,2.024l-3.384-.607c.2-2.834,2.632-4.049,5.5-4.049,3.065,0,5.09,1.3,5.09,4.309v5.61" transform="translate(-763.352 413.892)" fill="#ad242f"/>
      <path id="path28" d="M983.542-444.387l-2.632-4.569a13.893,13.893,0,0,1-1.272-2.69h-.116a22.73,22.73,0,0,1,.145,2.95v10.67h-3.5V-457.4h3.7l3.471,6.449a10.769,10.769,0,0,1,1.1,2.372h.116a12.868,12.868,0,0,1,1.1-2.372l3.5-6.449h3.615v14.431h-3.5V-448.7a18.954,18.954,0,0,1,.174-2.95h-.115a15.5,15.5,0,0,1-1.3,2.69l-2.632,4.569h-1.851" transform="translate(-876.632 457.516)" fill="#ad242f"/>
      <path id="path30" d="M1055.792-309.085H1031.5v-3.181h24.291v3.181" transform="translate(-925.792 328.576)" fill="#eb5262"/>
      <path id="path32" d="M386.178-454.219h63.041V-457.4H386.178v3.181" transform="translate(-352.475 457.515)" fill="#eb5262"/>
      <path id="path34" d="M87.629-454.449h2.748c1.764,0,2.661.9,2.661,2.43,0,1.735-.925,2.429-2.69,2.429H87.629Zm4.483,9.688L92.6-442.8h3.8l-.7-2.63a3.018,3.018,0,0,0-2.863-2.545v-.086a3.909,3.909,0,0,0,3.788-4.251c0-3.615-2.2-5.09-6.044-5.09H84.13v19.375h3.5v-8.646h1.88c1.446,0,2.227.29,2.6,1.909" transform="translate(-84.13 457.515)" fill="#ad242f"/>
      <path id="path36" d="M158.766-309.085h-18.8v-3.181h18.8v3.181" transform="translate(-133.738 328.576)" fill="#eb5262"/>
      <path id="path38" d="M1150.334-452.854a2.934,2.934,0,0,0,.029-.491,2.278,2.278,0,0,0-2.372-2.487c-1.591,0-2.6,1.157-2.806,2.979Zm.376,3.847,2.95.954c-.637,2.689-3.008,3.644-5.611,3.644-3.73,0-6.275-2.487-6.275-6.854,0-4.569,2.458-7.172,6.363-7.172,3.672,0,5.523,2.458,5.523,5.842a6.94,6.94,0,0,1-.2,1.792H1145.1c.086,2.228,1.128,3.731,3.064,3.731a2.41,2.41,0,0,0,2.546-1.937" transform="translate(-1023.761 458.435)" fill="#ad242f"/>
      <path id="path40" d="M89.14-238.773h.637c.394,0,.625-.15.625-.537,0-.294-.187-.481-.625-.481H89.14Zm.538-1.531c.35,0,.575-.156.575-.513s-.219-.512-.606-.512H89.14v1.025Zm.581.212a.832.832,0,0,1,.813.856c0,.625-.4,1.025-1.3,1.025h-1.3v-3.681h1.306c.744,0,1.144.325,1.144.931a.8.8,0,0,1-.663.85v.019" transform="translate(-87.987 266.053)" fill="#ad242f"/>
      <path id="path42" d="M128-241.891v2.469c0,.969-.7,1.287-1.456,1.287s-1.45-.319-1.45-1.287v-2.469h.669v2.287c0,.619.25.919.781.919s.787-.3.787-.913v-2.293H128" transform="translate(-120.524 266.053)" fill="#ad242f"/>
      <path id="path44" d="M163.456-239.933a.7.7,0,0,0,.737.638c.356,0,.606-.156.606-.469s-.15-.437-.712-.637c-.663-.225-1.113-.487-1.113-1.156,0-.788.613-1.063,1.213-1.063.7,0,1.231.263,1.3.963l-.662.15a.586.586,0,0,0-.625-.569c-.312,0-.537.156-.537.469,0,.331.263.444.744.612.637.219,1.081.456,1.081,1.15,0,.75-.6,1.062-1.331,1.062a1.154,1.154,0,0,1-1.319-.937l.619-.212" transform="translate(-154.055 266.702)" fill="#ad242f"/>
      <path id="path46" d="M201.307-241.891v3.681h-.669v-3.681h.669" transform="translate(-187.638 266.053)" fill="#ad242f"/>
      <path id="path48" d="M225.037-239.892a5.32,5.32,0,0,1,.381.631h.025s-.025-.369-.025-.831v-1.8h.669v3.681h-.637l-1.413-1.981a4.978,4.978,0,0,1-.4-.656h-.025s.037.363.037.856v1.781h-.669v-3.681h.656l1.4,2" transform="translate(-207.488 266.053)" fill="#ad242f"/>
      <path id="path50" d="M269.5-238.21h-2.337v-3.681H269.5v.581h-1.668v.969h1.475v.569h-1.475v.981H269.5v.581" transform="translate(-246.742 266.053)" fill="#ad242f"/>
      <path id="path52" d="M300.262-239.933a.7.7,0,0,0,.738.638c.356,0,.606-.156.606-.469s-.15-.437-.713-.637c-.662-.225-1.112-.487-1.112-1.156,0-.788.612-1.063,1.212-1.063.7,0,1.231.263,1.3.963l-.662.15a.586.586,0,0,0-.625-.569c-.312,0-.537.156-.537.469,0,.331.262.444.744.612.638.219,1.081.456,1.081,1.15,0,.75-.6,1.062-1.331,1.062s-1.175-.269-1.319-.937l.619-.212" transform="translate(-275.596 266.702)" fill="#ad242f"/>
      <path id="path54" d="M334.982-239.933a.7.7,0,0,0,.737.638c.356,0,.606-.156.606-.469s-.15-.437-.712-.637c-.663-.225-1.113-.487-1.113-1.156,0-.788.613-1.063,1.213-1.063.7,0,1.231.263,1.3.963l-.662.15a.586.586,0,0,0-.625-.569c-.313,0-.538.156-.538.469,0,.331.262.444.744.612.637.219,1.081.456,1.081,1.15,0,.75-.6,1.062-1.331,1.062s-1.175-.269-1.319-.937l.619-.212" transform="translate(-306.442 266.702)" fill="#ad242f"/>
      <path id="path56" d="M390.977-239.933a.7.7,0,0,0,.737.638c.356,0,.606-.156.606-.469s-.15-.437-.712-.637c-.663-.225-1.112-.487-1.112-1.156,0-.788.612-1.063,1.212-1.063.7,0,1.231.263,1.3.963l-.663.15a.586.586,0,0,0-.625-.569c-.312,0-.537.156-.537.469,0,.331.262.444.744.612.637.219,1.081.456,1.081,1.15,0,.75-.6,1.062-1.331,1.062s-1.175-.269-1.319-.937l.619-.212" transform="translate(-356.189 266.702)" fill="#ad242f"/>
      <path id="path58" d="M426.728-240.64c0,.825.331,1.331.987,1.331s.994-.506.994-1.331-.337-1.337-.994-1.337S426.728-241.471,426.728-240.64Zm-.7-.006c0-1.231.65-1.919,1.688-1.919s1.688.688,1.688,1.919-.65,1.912-1.687,1.912-1.687-.687-1.687-1.912" transform="translate(-387.879 266.652)" fill="#ad242f"/>
      <path id="path60" d="M471.162-241.891v3.1h1.575v.581h-2.244v-3.681h.668" transform="translate(-427.383 266.053)" fill="#ad242f"/>
      <path id="path62" d="M504.534-241.891v2.469c0,.969-.7,1.287-1.456,1.287s-1.45-.319-1.45-1.287v-2.469h.668v2.287c0,.619.25.919.781.919s.788-.3.788-.913v-2.293h.668" transform="translate(-455.043 266.053)" fill="#ad242f"/>
      <path id="path64" d="M540.085-238.21v-3.1h-1.05v-.581h2.775v.581h-1.062v3.1h-.662" transform="translate(-488.276 266.053)" fill="#ad242f"/>
      <path id="path66" d="M576.943-241.891v3.681h-.668v-3.681h.668" transform="translate(-521.361 266.053)" fill="#ad242f"/>
      <path id="path68" d="M597.191-240.64c0,.825.331,1.331.987,1.331s.994-.506.994-1.331-.337-1.337-.994-1.337S597.191-241.471,597.191-240.64Zm-.7-.006c0-1.231.65-1.919,1.688-1.919s1.687.688,1.687,1.919-.65,1.912-1.687,1.912-1.687-.687-1.687-1.912" transform="translate(-539.321 266.652)" fill="#ad242f"/>
      <path id="path70" d="M643.009-239.892a5.394,5.394,0,0,1,.381.631h.025s-.025-.369-.025-.831v-1.8h.669v3.681h-.638l-1.412-1.981a4.916,4.916,0,0,1-.4-.656h-.025s.037.363.037.856v1.781h-.668v-3.681h.656l1.4,2" transform="translate(-578.821 266.053)" fill="#ad242f"/>
      <path id="path72" d="M684.978-216.856a.455.455,0,0,1,.469.463.459.459,0,0,1-.469.462.456.456,0,0,1-.456-.462.452.452,0,0,1,.456-.463" transform="translate(-617.53 243.811)" fill="#ad242f"/>
      <path id="path74" d="M730.839-239.521a1.567,1.567,0,0,1-1.512.787c-.969,0-1.637-.687-1.637-1.912a1.694,1.694,0,0,1,1.744-1.919,1.427,1.427,0,0,1,1.425.9l-.631.313a.82.82,0,0,0-.825-.631c-.643,0-1.019.512-1.019,1.344s.337,1.312,1.006,1.312a.978.978,0,0,0,.919-.556l.531.363" transform="translate(-655.881 266.652)" fill="#ad242f"/>
      <path id="path76" d="M766.306-239.692h1.081l-.237-.687a7.774,7.774,0,0,1-.288-.994h-.025a9.51,9.51,0,0,1-.288.988Zm1.281.556h-1.468l-.325.925H765.1l1.338-3.681h.856l1.338,3.681h-.719l-.325-.925" transform="translate(-689.116 266.053)" fill="#ad242f"/>
      <path id="path78" d="M806.652-239.933a.7.7,0,0,0,.738.638c.356,0,.606-.156.606-.469s-.15-.437-.712-.637c-.663-.225-1.113-.487-1.113-1.156,0-.788.613-1.063,1.212-1.063.7,0,1.231.263,1.3.963l-.662.15a.586.586,0,0,0-.625-.569c-.312,0-.537.156-.537.469,0,.331.262.444.743.612.637.219,1.081.456,1.081,1.15,0,.75-.6,1.062-1.331,1.062s-1.175-.269-1.319-.937l.618-.212" transform="translate(-725.483 266.702)" fill="#ad242f"/>
      <path id="path80" d="M843.833-238.21v-3.681h.669v1.525h1.638v-1.525h.669v3.681h-.669v-1.581H844.5v1.581h-.669" transform="translate(-759.065 266.053)" fill="#ad242f"/>
      <path id="path82" d="M910.452-238.21h-2.337v-3.681h2.337v.581h-1.668v.969h1.475v.569h-1.475v.981h1.668v.581" transform="translate(-816.173 266.053)" fill="#ad242f"/>
      <path id="path84" d="M941.11-239.679a7.491,7.491,0,0,1,.231.95h.024a5.583,5.583,0,0,1,.213-.944l.688-2.219h.7l-1.213,3.681h-.85l-1.206-3.681h.712l.7,2.212" transform="translate(-844.233 266.053)" fill="#ad242f"/>
      <path id="path86" d="M979.266-240.64c0,.825.331,1.331.987,1.331s.993-.506.993-1.331-.337-1.337-.993-1.337S979.266-241.471,979.266-240.64Zm-.7-.006c0-1.231.65-1.919,1.688-1.919s1.688.688,1.688,1.919-.65,1.912-1.687,1.912-1.687-.687-1.687-1.912" transform="translate(-878.763 266.652)" fill="#ad242f"/>
      <path id="path88" d="M1023.7-241.891v3.1h1.574v.581h-2.243v-3.681h.669" transform="translate(-918.265 266.053)" fill="#ad242f"/>
      <path id="path90" d="M1057.07-241.891v2.469c0,.969-.7,1.287-1.456,1.287s-1.45-.319-1.45-1.287v-2.469h.669v2.287c0,.619.25.919.781.919s.787-.3.787-.913v-2.293h.669" transform="translate(-945.927 266.053)" fill="#ad242f"/>
      <path id="path92" d="M1092.621-238.21v-3.1h-1.05v-.581h2.774v.581h-1.063v3.1h-.661" transform="translate(-979.159 266.053)" fill="#ad242f"/>
      <path id="path94" d="M1129.478-241.891v3.681h-.669v-3.681h.669" transform="translate(-1012.242 266.053)" fill="#ad242f"/>
      <path id="path96" d="M1149.726-240.64c0,.825.331,1.331.987,1.331s.994-.506.994-1.331-.338-1.337-.994-1.337S1149.726-241.471,1149.726-240.64Zm-.7-.006c0-1.231.65-1.919,1.688-1.919s1.688.688,1.688,1.919-.649,1.912-1.687,1.912-1.687-.687-1.687-1.912" transform="translate(-1030.203 266.652)" fill="#ad242f"/>
      <path id="path98" d="M1195.544-239.892a5.316,5.316,0,0,1,.381.631h.026s-.026-.369-.026-.831v-1.8h.67v3.681h-.638l-1.412-1.981a4.89,4.89,0,0,1-.4-.656h-.024s.036.363.036.856v1.781h-.667v-3.681h.655l1.4,2" transform="translate(-1069.705 266.053)" fill="#ad242f"/>
      <path id="path100" d="M1237.514-216.856a.455.455,0,0,1,.469.463.459.459,0,0,1-.469.462.456.456,0,0,1-.456-.462.453.453,0,0,1,.456-.463" transform="translate(-1108.413 243.811)" fill="#ad242f"/>
    </g>
  </g>
</svg>
