<?xml version="1.0" encoding="UTF-8" standalone="no"?>
<svg
   xmlns:dc="http://purl.org/dc/elements/1.1/"
   xmlns:cc="http://creativecommons.org/ns#"
   xmlns:rdf="http://www.w3.org/1999/02/22-rdf-syntax-ns#"
   xmlns:svg="http://www.w3.org/2000/svg"
   xmlns="http://www.w3.org/2000/svg"
   xmlns:sodipodi="http://sodipodi.sourceforge.net/DTD/sodipodi-0.dtd"
   xmlns:inkscape="http://www.inkscape.org/namespaces/inkscape"
   version="1.1"
   id="svg2"
   xml:space="preserve"
   width="1333.3333"
   height="666.66669"
   viewBox="0 0 1333.3333 666.66669"
   sodipodi:docname="Reinnovame - Logo cash - Rosso trasp.eps"><metadata
     id="metadata8"><rdf:RDF><cc:Work
         rdf:about=""><dc:format>image/svg+xml</dc:format><dc:type
           rdf:resource="http://purl.org/dc/dcmitype/StillImage" /></cc:Work></rdf:RDF></metadata><defs
     id="defs6" /><sodipodi:namedview
     pagecolor="#ffffff"
     bordercolor="#666666"
     borderopacity="1"
     objecttolerance="10"
     gridtolerance="10"
     guidetolerance="10"
     inkscape:pageopacity="0"
     inkscape:pageshadow="2"
     inkscape:window-width="640"
     inkscape:window-height="480"
     id="namedview4" /><g
     id="g10"
     inkscape:groupmode="layer"
     inkscape:label="ink_ext_XXXXXX"
     transform="matrix(1.3333333,0,0,-1.3333333,0,666.66667)"><g
       id="g12"
       transform="scale(0.1)"><path
         d="m 2125.78,3063.11 c 1.94,13.61 1.94,21.38 1.94,33.05 0,95.25 -56.38,167.16 -159.41,167.16 -106.91,0 -174.94,-77.76 -188.55,-200.21 z m 25.25,-258.55 198.29,-64.12 c -42.77,-180.79 -202.16,-244.95 -377.1,-244.95 -250.77,0 -421.84,167.18 -421.84,460.7 0,307.13 165.24,482.08 427.65,482.08 246.88,0 371.29,-165.24 371.29,-392.66 0,-42.77 -3.88,-85.53 -13.62,-120.52 h -561.76 c 5.82,-149.69 75.81,-250.75 206.04,-250.75 79.71,0 139.96,31.09 171.05,130.22"
         style="fill:#ad242f;fill-opacity:1;fill-rule:nonzero;stroke:none"
         id="path14" /><path
         d="M 2714.68,3430.51 V 2128.19 h -235.21 v 1302.32 h 235.21"
         style="fill:#ad242f;fill-opacity:1;fill-rule:nonzero;stroke:none"
         id="path16" /><path
         d="m 3120.89,2867.84 c 48.62,134.13 149.7,194.4 287.71,194.4 141.89,0 266.3,-81.64 266.3,-281.86 v -637.59 h -231.32 v 555.95 c 0,103.01 -34.98,167.17 -132.18,167.17 -93.3,0 -180.79,-50.53 -180.79,-221.6 V 2142.79 H 2899.3 v 898.05 h 194.39 l 27.2,-173"
         style="fill:#ad242f;fill-opacity:1;fill-rule:nonzero;stroke:none"
         id="path18" /><path
         d="m 4046.11,2867.84 c 48.59,134.13 149.67,194.4 287.69,194.4 141.89,0 266.3,-81.64 266.3,-281.86 v -637.59 h -231.32 v 555.95 c 0,103.01 -34.98,167.17 -132.17,167.17 -93.31,0 -180.78,-50.53 -180.78,-221.6 v -501.52 h -231.31 v 898.05 h 194.37 l 27.22,-173"
         style="fill:#ad242f;fill-opacity:1;fill-rule:nonzero;stroke:none"
         id="path20" /><path
         d="m 4920.78,2593.76 c 0,-198.26 64.14,-293.52 196.33,-293.52 134.13,0 198.26,95.26 198.26,293.52 0,192.46 -66.09,281.86 -198.26,281.86 -130.25,0 -196.33,-89.4 -196.33,-281.86 z m -229.38,1.96 c 0,305.19 169.11,466.52 425.71,466.52 256.58,0 425.7,-161.33 425.7,-466.52 0,-305.19 -169.12,-476.26 -425.7,-476.26 -256.6,0 -425.71,171.07 -425.71,476.26"
         style="fill:#ad242f;fill-opacity:1;fill-rule:nonzero;stroke:none"
         id="path22" /><path
         d="m 5513.6,3040.84 h 246.87 l 134.12,-437.34 c 46.66,-153.58 64.16,-289.64 64.16,-289.64 h 7.76 c 0,0 17.5,136.06 64.16,289.64 l 136.07,437.34 h 239.09 l -318.8,-898.05 H 5828.5 l -314.9,898.05"
         style="fill:#ad242f;fill-opacity:1;fill-rule:nonzero;stroke:none"
         id="path24" /><path
         d="m 6876.18,2525.73 c -202.16,5.83 -279.9,-44.7 -279.9,-136.08 0,-60.25 40.81,-103.01 114.69,-103.01 75.81,0 165.21,40.83 165.21,134.12 z m 231.34,-130.23 c 0,-64.16 27.2,-83.6 66.09,-83.6 21.38,0 36.93,5.84 54.43,13.61 v -171.05 c -33.05,-19.43 -75.82,-27.21 -130.24,-27.21 -110.8,0 -180.79,42.74 -204.12,141.9 -42.76,-110.81 -143.84,-149.69 -262.42,-149.69 -159.4,0 -266.3,91.36 -266.3,244.94 0,200.21 159.39,311.01 511.22,291.57 v 95.25 c 0,87.47 -42.76,134.13 -122.45,134.13 -81.64,0 -124.4,-50.54 -130.23,-136.07 l -227.45,40.81 c 13.62,190.51 176.9,272.15 369.34,272.15 206.04,0 342.13,-87.47 342.13,-289.65 V 2395.5"
         style="fill:#ad242f;fill-opacity:1;fill-rule:nonzero;stroke:none"
         id="path26" /><path
         d="m 7816.97,2555.78 -176.89,307.13 c -62.21,104.97 -85.54,180.78 -85.54,180.78 h -7.78 c 0,0 9.71,-66.09 9.71,-198.28 v -717.22 h -235.2 v 1302.32 h 248.82 l 233.27,-433.47 c 60.24,-104.97 73.86,-159.41 73.86,-159.41 h 7.78 c 0,0 15.55,54.44 73.86,159.41 l 235.22,433.47 h 242.97 v -970 h -235.2 v 384.9 c 0,132.19 11.67,198.28 11.67,198.28 h -7.79 c 0,0 -25.26,-75.81 -87.46,-180.78 l -176.89,-307.13 h -124.41"
         style="fill:#ad242f;fill-opacity:1;fill-rule:nonzero;stroke:none"
         id="path28" /><path
         d="M 9369.02,2128.19 H 7736.28 V 2342 h 1632.74 v -213.81"
         style="fill:#eb5262;fill-opacity:1;fill-rule:nonzero;stroke:none"
         id="path30" /><path
         d="m 2896.34,3216.69 h 4237.37 v 213.82 H 2896.34 v -213.82"
         style="fill:#eb5262;fill-opacity:1;fill-rule:nonzero;stroke:none"
         id="path32" /><path
         d="m 866.176,3232.24 h 184.674 c 118.58,0 178.83,-60.27 178.83,-163.3 0,-116.63 -62.2,-163.29 -180.78,-163.29 H 866.176 Z m 301.304,-651.2 32.67,-132.13 h 255.74 l -47.36,176.83 c -29.15,110.8 -85.53,155.51 -192.44,171.07 v 5.83 c 145.79,11.67 254.63,106.92 254.63,285.75 0,242.99 -147.72,342.11 -406.26,342.11 H 630.973 V 2128.19 h 235.203 v 581.15 h 126.347 c 97.207,0 149.687,-19.44 174.957,-128.3"
         style="fill:#ad242f;fill-opacity:1;fill-rule:nonzero;stroke:none"
         id="path34" /><path
         d="M 2313.21,2128.19 H 1049.77 V 2342 h 1263.44 v -213.81"
         style="fill:#eb5262;fill-opacity:1;fill-rule:nonzero;stroke:none"
         id="path36" /><path
         d="m 9138.7,3063.11 c 1.93,13.61 1.93,21.38 1.93,33.05 0,95.25 -56.37,167.16 -159.39,167.16 -106.9,0 -174.95,-77.76 -188.55,-200.21 z m 25.26,-258.55 198.29,-64.12 c -42.77,-180.79 -202.17,-244.95 -377.11,-244.95 -250.78,0 -421.82,167.18 -421.82,460.7 0,307.13 165.21,482.08 427.65,482.08 246.87,0 371.28,-165.24 371.28,-392.66 0,-42.77 -3.89,-85.53 -13.61,-120.52 h -561.79 c 5.84,-149.69 75.82,-250.75 206.05,-250.75 79.71,0 139.97,31.09 171.06,130.22"
         style="fill:#ad242f;fill-opacity:1;fill-rule:nonzero;stroke:none"
         id="path38" /><path
         d="m 708.484,1604.58 h 42.848 c 26.465,0 42.008,10.08 42.008,36.12 0,19.75 -12.602,32.35 -42.008,32.35 h -42.848 z m 36.129,102.91 c 23.524,0 38.645,10.51 38.645,34.45 0,24.79 -14.703,34.45 -40.746,34.45 h -34.028 v -68.9 z m 39.063,-14.28 c 32.347,-3.78 54.617,-23.94 54.617,-57.55 0,-42.01 -26.887,-68.89 -87.379,-68.89 h -87.375 v 247.42 h 87.793 c 49.992,0 76.875,-21.84 76.875,-62.59 0,-32.34 -18.066,-51.67 -44.531,-57.13 v -1.26"
         style="fill:#ad242f;fill-opacity:1;fill-rule:nonzero;stroke:none"
         id="path40" /><path
         d="m 1133.55,1814.19 v -165.93 c 0,-65.11 -47.05,-86.53 -97.88,-86.53 -50.412,0 -97.455,21.42 -97.455,86.53 v 165.93 h 44.945 v -153.74 c 0,-41.59 16.805,-61.76 52.51,-61.76 36.13,0 52.93,20.17 52.93,61.34 v 154.16 h 44.95"
         style="fill:#ad242f;fill-opacity:1;fill-rule:nonzero;stroke:none"
         id="path42" /><path
         d="m 1262.87,1639.02 c 4.62,-28.56 23.95,-42.85 49.57,-42.85 23.94,0 40.75,10.51 40.75,31.52 0,20.15 -10.08,29.4 -47.89,42.84 -44.53,15.12 -74.78,32.76 -74.78,77.71 0,52.93 41.17,71.42 81.5,71.42 47.05,0 82.76,-17.65 87.37,-64.7 l -44.52,-10.08 c -2.52,25.63 -19.75,38.23 -42.01,38.23 -21,0 -36.13,-10.5 -36.13,-31.51 0,-22.26 17.65,-29.82 49.99,-41.16 42.85,-14.71 72.67,-30.67 72.67,-77.3 0,-50.41 -40.32,-71.41 -89.47,-71.41 -48.73,0 -78.97,18.06 -88.64,63.01 l 41.59,14.28"
         style="fill:#ad242f;fill-opacity:1;fill-rule:nonzero;stroke:none"
         id="path44" /><path
         d="m 1549.73,1814.19 v -247.42 h -44.94 v 247.42 h 44.94"
         style="fill:#ad242f;fill-opacity:1;fill-rule:nonzero;stroke:none"
         id="path46" /><path
         d="m 1810.57,1679.77 c 14.7,-20.58 25.62,-42.43 25.62,-42.43 h 1.68 c 0,0 -1.68,24.79 -1.68,55.87 v 120.98 h 44.95 v -247.42 h -42.85 l -94.94,133.16 c -15.96,21.85 -26.88,44.11 -26.88,44.11 h -1.68 c 0,0 2.52,-24.36 2.52,-57.55 v -119.72 h -44.95 v 247.42 h 44.11 l 94.1,-134.42"
         style="fill:#ad242f;fill-opacity:1;fill-rule:nonzero;stroke:none"
         id="path48" /><path
         d="m 2160.84,1566.77 h -157.1 v 247.42 h 157.1 v -39.06 h -112.15 v -65.11 h 99.13 v -38.23 h -99.13 v -65.95 h 112.15 v -39.07"
         style="fill:#ad242f;fill-opacity:1;fill-rule:nonzero;stroke:none"
         id="path50" /><path
         d="m 2288.92,1639.02 c 4.62,-28.56 23.94,-42.85 49.57,-42.85 23.94,0 40.74,10.51 40.74,31.52 0,20.15 -10.08,29.4 -47.89,42.84 -44.52,15.12 -74.77,32.76 -74.77,77.71 0,52.93 41.17,71.42 81.5,71.42 47.04,0 82.75,-17.65 87.37,-64.7 l -44.53,-10.08 c -2.52,25.63 -19.74,38.23 -42,38.23 -21.01,0 -36.13,-10.5 -36.13,-31.51 0,-22.26 17.64,-29.82 49.99,-41.16 42.85,-14.71 72.67,-30.67 72.67,-77.3 0,-50.41 -40.33,-71.41 -89.48,-71.41 -48.72,0 -78.97,18.06 -88.63,63.01 l 41.59,14.28"
         style="fill:#ad242f;fill-opacity:1;fill-rule:nonzero;stroke:none"
         id="path52" /><path
         d="m 2549.32,1639.02 c 4.62,-28.56 23.94,-42.85 49.57,-42.85 23.94,0 40.74,10.51 40.74,31.52 0,20.15 -10.08,29.4 -47.89,42.84 -44.52,15.12 -74.77,32.76 -74.77,77.71 0,52.93 41.17,71.42 81.5,71.42 47.04,0 82.75,-17.65 87.37,-64.7 l -44.53,-10.08 c -2.52,25.63 -19.74,38.23 -42,38.23 -21.01,0 -36.13,-10.5 -36.13,-31.51 0,-22.26 17.64,-29.82 49.99,-41.16 42.85,-14.71 72.67,-30.67 72.67,-77.3 0,-50.41 -40.33,-71.41 -89.48,-71.41 -48.72,0 -78.97,18.06 -88.63,63.01 l 41.59,14.28"
         style="fill:#ad242f;fill-opacity:1;fill-rule:nonzero;stroke:none"
         id="path54" /><path
         d="m 2969.28,1639.02 c 4.62,-28.56 23.94,-42.85 49.57,-42.85 23.94,0 40.74,10.51 40.74,31.52 0,20.15 -10.08,29.4 -47.89,42.84 -44.52,15.12 -74.77,32.76 -74.77,77.71 0,52.93 41.17,71.42 81.5,71.42 47.04,0 82.75,-17.65 87.37,-64.7 l -44.53,-10.08 c -2.52,25.63 -19.74,38.23 -42,38.23 -21.01,0 -36.13,-10.5 -36.13,-31.51 0,-22.26 17.64,-29.82 49.99,-41.16 42.85,-14.71 72.67,-30.67 72.67,-77.3 0,-50.41 -40.33,-71.41 -89.48,-71.41 -48.72,0 -78.97,18.06 -88.63,63.01 l 41.59,14.28"
         style="fill:#ad242f;fill-opacity:1;fill-rule:nonzero;stroke:none"
         id="path56" /><path
         d="m 3242.28,1689.85 c 0,-55.45 22.26,-89.47 66.37,-89.47 44.1,0 66.79,34.02 66.79,89.47 0,55.87 -22.69,89.9 -66.79,89.9 -43.69,0 -66.37,-34.03 -66.37,-89.9 z m -47.06,0.42 c 0,82.76 43.7,128.97 113.43,128.97 69.73,0 113.42,-46.21 113.42,-128.97 0,-82.33 -43.69,-128.54 -113.42,-128.54 -69.73,0 -113.43,46.21 -113.43,128.54"
         style="fill:#ad242f;fill-opacity:1;fill-rule:nonzero;stroke:none"
         id="path58" /><path
         d="m 3573.65,1814.19 v -208.35 h 105.86 v -39.07 h -150.8 v 247.42 h 44.94"
         style="fill:#ad242f;fill-opacity:1;fill-rule:nonzero;stroke:none"
         id="path60" /><path
         d="m 3957.55,1814.19 v -165.93 c 0,-65.11 -47.05,-86.53 -97.87,-86.53 -50.41,0 -97.46,21.42 -97.46,86.53 v 165.93 h 44.95 v -153.74 c 0,-41.59 16.8,-61.76 52.51,-61.76 36.13,0 52.93,20.17 52.93,61.34 v 154.16 h 44.94"
         style="fill:#ad242f;fill-opacity:1;fill-rule:nonzero;stroke:none"
         id="path62" /><path
         d="m 4113.34,1566.77 v 208.36 h -70.57 v 39.06 h 186.51 v -39.06 h -71.41 v -208.36 h -44.53"
         style="fill:#ad242f;fill-opacity:1;fill-rule:nonzero;stroke:none"
         id="path64" /><path
         d="m 4367.02,1814.19 v -247.42 h -44.95 v 247.42 h 44.95"
         style="fill:#ad242f;fill-opacity:1;fill-rule:nonzero;stroke:none"
         id="path66" /><path
         d="m 4520.73,1689.85 c 0,-55.45 22.26,-89.47 66.37,-89.47 44.12,0 66.79,34.02 66.79,89.47 0,55.87 -22.67,89.9 -66.79,89.9 -43.69,0 -66.37,-34.03 -66.37,-89.9 z m -47.04,0.42 c 0,82.76 43.68,128.97 113.41,128.97 69.73,0 113.42,-46.21 113.42,-128.97 0,-82.33 -43.69,-128.54 -113.42,-128.54 -69.73,0 -113.41,46.21 -113.41,128.54"
         style="fill:#ad242f;fill-opacity:1;fill-rule:nonzero;stroke:none"
         id="path68" /><path
         d="m 4945.37,1679.77 c 14.71,-20.58 25.63,-42.43 25.63,-42.43 h 1.68 c 0,0 -1.68,24.79 -1.68,55.87 v 120.98 h 44.94 v -247.42 h -42.85 l -94.93,133.16 c -15.97,21.85 -26.89,44.11 -26.89,44.11 h -1.68 c 0,0 2.52,-24.36 2.52,-57.55 v -119.72 h -44.95 v 247.42 h 44.11 l 94.1,-134.42"
         style="fill:#ad242f;fill-opacity:1;fill-rule:nonzero;stroke:none"
         id="path70" /><path
         d="m 5164.59,1626.42 c 18.07,0 31.5,-13.44 31.5,-31.09 0,-17.21 -13.43,-31.08 -31.5,-31.08 -17.23,0 -30.66,13.87 -30.66,31.08 0,17.65 13.43,31.09 30.66,31.09"
         style="fill:#ad242f;fill-opacity:1;fill-rule:nonzero;stroke:none"
         id="path72" /><path
         d="m 5669.41,1614.66 c -22.26,-35.7 -50.41,-52.93 -101.66,-52.93 -65.11,0 -110.06,46.21 -110.06,128.54 0,82.34 46.22,128.97 117.21,128.97 47.05,0 78.56,-21.01 95.78,-60.5 l -42.44,-21 c -9.24,27.73 -27.71,42.43 -55.45,42.43 -43.26,0 -68.47,-34.45 -68.47,-90.32 0,-55.45 22.69,-88.21 67.63,-88.21 27.74,0 46.64,11.34 61.76,37.38 l 35.7,-24.36"
         style="fill:#ad242f;fill-opacity:1;fill-rule:nonzero;stroke:none"
         id="path74" /><path
         d="m 5819.34,1666.33 h 72.67 l -15.98,46.21 c -13.84,39.06 -19.31,66.79 -19.31,66.79 h -1.68 c 0,0 -5.88,-27.31 -19.32,-66.37 z m 86.11,-37.38 h -98.71 l -21.86,-62.18 h -46.62 l 89.9,247.42 h 57.54 l 89.9,-247.42 h -48.32 l -21.83,62.18"
         style="fill:#ad242f;fill-opacity:1;fill-rule:nonzero;stroke:none"
         id="path76" /><path
         d="m 6086.85,1639.02 c 4.63,-28.56 23.95,-42.85 49.58,-42.85 23.94,0 40.74,10.51 40.74,31.52 0,20.15 -10.08,29.4 -47.87,42.84 -44.53,15.12 -74.79,32.76 -74.79,77.71 0,52.93 41.17,71.42 81.51,71.42 47.05,0 82.75,-17.65 87.36,-64.7 l -44.53,-10.08 c -2.52,25.63 -19.73,38.23 -42,38.23 -21.01,0 -36.13,-10.5 -36.13,-31.51 0,-22.26 17.64,-29.82 49.98,-41.16 42.85,-14.71 72.68,-30.67 72.68,-77.3 0,-50.41 -40.31,-71.41 -89.47,-71.41 -48.73,0 -78.97,18.06 -88.64,63.01 l 41.58,14.28"
         style="fill:#ad242f;fill-opacity:1;fill-rule:nonzero;stroke:none"
         id="path78" /><path
         d="m 6328.77,1566.77 v 247.42 h 44.96 V 1711.7 h 110.06 v 102.49 h 44.94 v -247.42 h -44.94 v 106.28 h -110.06 v -106.28 h -44.96"
         style="fill:#ad242f;fill-opacity:1;fill-rule:nonzero;stroke:none"
         id="path80" /><path
         d="m 6967.99,1566.77 h -157.11 v 247.42 h 157.11 v -39.06 h -112.15 v -65.11 h 99.14 v -38.23 h -99.14 v -65.95 h 112.15 v -39.07"
         style="fill:#ad242f;fill-opacity:1;fill-rule:nonzero;stroke:none"
         id="path82" /><path
         d="m 7142.69,1665.49 c 11.35,-36.54 15.55,-63.85 15.55,-63.85 h 1.68 c 0,0 2.93,26.89 14.28,63.43 l 46.21,149.12 h 47.05 l -81.5,-247.42 h -57.13 l -81.08,247.42 h 47.89 l 47.05,-148.7"
         style="fill:#ad242f;fill-opacity:1;fill-rule:nonzero;stroke:none"
         id="path84" /><path
         d="m 7386.29,1689.85 c 0,-55.45 22.26,-89.47 66.39,-89.47 44.1,0 66.77,34.02 66.77,89.47 0,55.87 -22.67,89.9 -66.77,89.9 -43.7,0 -66.39,-34.03 -66.39,-89.9 z m -47.03,0.42 c 0,82.76 43.67,128.97 113.42,128.97 69.72,0 113.41,-46.21 113.41,-128.97 0,-82.33 -43.69,-128.54 -113.41,-128.54 -69.75,0 -113.42,46.21 -113.42,128.54"
         style="fill:#ad242f;fill-opacity:1;fill-rule:nonzero;stroke:none"
         id="path86" /><path
         d="m 7717.68,1814.19 v -208.35 h 105.85 v -39.07 h -150.8 v 247.42 h 44.95"
         style="fill:#ad242f;fill-opacity:1;fill-rule:nonzero;stroke:none"
         id="path88" /><path
         d="m 8101.58,1814.19 v -165.93 c 0,-65.11 -47.05,-86.53 -97.87,-86.53 -50.41,0 -97.46,21.42 -97.46,86.53 v 165.93 h 44.94 v -153.74 c 0,-41.59 16.8,-61.76 52.52,-61.76 36.11,0 52.93,20.17 52.93,61.34 v 154.16 h 44.94"
         style="fill:#ad242f;fill-opacity:1;fill-rule:nonzero;stroke:none"
         id="path90" /><path
         d="m 8257.36,1566.77 v 208.36 h -70.56 v 39.06 h 186.5 v -39.06 h -71.41 v -208.36 h -44.53"
         style="fill:#ad242f;fill-opacity:1;fill-rule:nonzero;stroke:none"
         id="path92" /><path
         d="m 8511.03,1814.19 v -247.42 h -44.94 v 247.42 h 44.94"
         style="fill:#ad242f;fill-opacity:1;fill-rule:nonzero;stroke:none"
         id="path94" /><path
         d="m 8664.75,1689.85 c 0,-55.45 22.26,-89.47 66.38,-89.47 44.1,0 66.78,34.02 66.78,89.47 0,55.87 -22.68,89.9 -66.78,89.9 -43.69,0 -66.38,-34.03 -66.38,-89.9 z m -47.04,0.42 c 0,82.76 43.68,128.97 113.42,128.97 69.73,0 113.42,-46.21 113.42,-128.97 0,-82.33 -43.69,-128.54 -113.42,-128.54 -69.74,0 -113.42,46.21 -113.42,128.54"
         style="fill:#ad242f;fill-opacity:1;fill-rule:nonzero;stroke:none"
         id="path96" /><path
         d="m 9089.39,1679.77 c 14.71,-20.58 25.63,-42.43 25.63,-42.43 h 1.68 c 0,0 -1.68,24.79 -1.68,55.87 v 120.98 h 44.94 v -247.42 h -42.85 l -94.92,133.16 c -15.98,21.85 -26.9,44.11 -26.9,44.11 h -1.68 c 0,0 2.52,-24.36 2.52,-57.55 v -119.72 h -44.94 v 247.42 h 44.1 l 94.1,-134.42"
         style="fill:#ad242f;fill-opacity:1;fill-rule:nonzero;stroke:none"
         id="path98" /><path
         d="m 9308.61,1626.42 c 18.07,0 31.51,-13.44 31.51,-31.09 0,-17.21 -13.44,-31.08 -31.51,-31.08 -17.22,0 -30.66,13.87 -30.66,31.08 0,17.65 13.44,31.09 30.66,31.09"
         style="fill:#ad242f;fill-opacity:1;fill-rule:nonzero;stroke:none"
         id="path100" /></g></g></svg>
