<svg xmlns="http://www.w3.org/2000/svg" class="svg" width="1045" height="692" style="display: block;">
<defs><style type="text/css"><![CDATA[
:root { overflow: hidden; }
.svg { background-color: rgb(255, 255, 255); }
.node circle { cursor: pointer; stroke: rgb(255, 255, 255); stroke-width: 1.5px; }
.node text { font-size: 10px; font-family: Arial; pointer-events: none; text-anchor: middle; font-weight: normal; font-style: normal; fill: rgb(0, 0, 0); }
line { fill: none; stroke: rgb(0, 0, 128); stroke-width: 0.5px; }]]></style></defs>
    <g transform="translate(-223.8699821252966,-195.33922595255228) scale(1.2209417605300585)"><line class="link" x1="661.5427969843316" y1="239.7383417732743" x2="619.3003532171984" y2="213.68878839742155"/><line class="link" x1="661.5427969843316" y1="239.7383417732743" x2="710.8974459360907" y2="224.99904636128045"/><line class="link" x1="661.5427969843316" y1="239.7383417732743" x2="681.9701931693317" y2="191.76883624966723"/><line class="link" x1="661.5427969843316" y1="239.7383417732743" x2="659.7280738478391" y2="187.92473456124932"/><line class="link" x1="661.5427969843316" y1="239.7383417732743" x2="711.5460164799154" y2="248.45125825293206"/><line class="link" x1="661.5427969843316" y1="239.7383417732743" x2="698.3622515019651" y2="271.24886799836446"/><line class="link" x1="661.5427969843316" y1="239.7383417732743" x2="700.1017030581282" y2="205.0055752130294"/><line class="link" x1="661.5427969843316" y1="239.7383417732743" x2="615.2922447350984" y2="336.3834498871185"/><line class="link" x1="661.5427969843316" y1="239.7383417732743" x2="637.2747581423189" y2="194.42382892619474"/><line class="link" x1="615.2922447350984" y1="336.3834498871185" x2="550.4423597919191" y2="398.9651937999851"/><line class="link" x1="615.2922447350984" y1="336.3834498871185" x2="656.3889054244046" y2="381.2928756837138"/><line class="link" x1="615.2922447350984" y1="336.3834498871185" x2="579.353676330103" y2="302.45276787666796"/><line class="link" x1="615.2922447350984" y1="336.3834498871185" x2="661.6073385093823" y2="343.2391664917845"/><line class="link" x1="615.2922447350984" y1="336.3834498871185" x2="568.7470854292386" y2="329.44286504100535"/><line class="link" x1="615.2922447350984" y1="336.3834498871185" x2="606.1957281368203" y2="290.68369676167276"/><line class="link" x1="550.4423597919191" y1="398.9651937999851" x2="495.9377766977971" y2="468.55089321749404"/><line class="link" x1="550.4423597919191" y1="398.9651937999851" x2="514.2883448524024" y2="364.9463927264764"/><line class="link" x1="656.3889054244046" y1="381.2928756837138" x2="695.3899938444059" y2="413.743835773098"/><line class="link" x1="495.9377766977971" y1="468.55089321749404" x2="466.4375954155381" y2="545.5388999979747"/><line class="link" x1="495.9377766977971" y1="468.55089321749404" x2="518.3349248270888" y2="510.96573213355316"/><line class="link" x1="495.9377766977971" y1="468.55089321749404" x2="465.1533667692446" y2="503.6113520713966"/><line class="link" x1="495.9377766977971" y1="468.55089321749404" x2="446.8599057645338" y2="453.30655808826725"/><line class="link" x1="495.9377766977971" y1="468.55089321749404" x2="484.15657599322043" y2="422.44021381841554"/><line class="link" x1="495.9377766977971" y1="468.55089321749404" x2="446.7993587524707" y2="478.1805884961475"/><line class="link" x1="495.9377766977971" y1="468.55089321749404" x2="459.35945242693435" y2="433.4048729205768"/><line class="link" x1="495.9377766977971" y1="468.55089321749404" x2="540.7756059116981" y2="484.15465155194954"/><line class="link" x1="466.4375954155381" y1="545.5388999979747" x2="448.73796448730474" y2="610.0991320984086"/><line class="link" x1="466.4375954155381" y1="545.5388999979747" x2="420.8180828979413" y2="562.4214036658238"/><line class="link" x1="448.73796448730474" y1="610.0991320984086" x2="430.14656818546575" y2="665.3521587727535"/><line class="link" x1="430.14656818546575" y1="665.3521587727535" x2="392.6679540889518" y2="693.5516006288447"/><line class="link" x1="430.14656818546575" y1="665.3521587727535" x2="449.44379416160865" y2="708.1173154201886"/><g class="node" transform="translate(619.3003532171984, 213.68878839742155)"><circle r="12" style="fill: rgb(0, 255, 0);"/><text dy=".15em">contatti</text></g><g class="node" transform="translate(710.8974459360907, 224.99904636128045)"><circle r="12" style="fill: rgb(0, 255, 0);"/><text dy=".15em">faq</text></g><g class="node" transform="translate(681.9701931693317, 191.76883624966723)"><circle r="12" style="fill: rgb(0, 255, 0);"/><text dy=".15em">privacy-policy</text></g><g class="node" transform="translate(659.7280738478391, 187.92473456124932)"><circle r="12" style="fill: rgb(0, 255, 0);"/><text dy=".15em">cookie-policy</text></g><g class="node" transform="translate(711.5460164799154, 248.45125825293206)"><circle r="12" style="fill: rgb(0, 255, 0);"/><text dy=".15em">careers</text></g><g class="node" transform="translate(700.1017030581282, 205.0055752130294)"><circle r="12" style="fill: rgb(0, 255, 0);"/><text dy=".15em">appuntamento-gratuito</text></g><g class="node" transform="translate(637.2747581423189, 194.42382892619474)"><circle r="12" style="fill: rgb(0, 255, 0);"/><text dy=".15em">consultant-pool</text></g><g class="node" transform="translate(656.3889054244046, 381.2928756837138)"><circle r="12" style="fill: rgb(0, 255, 255);"/><text dy=".15em">come-smettere-di-procrastinare-il-metodo-dostoevskij</text></g><g class="node" transform="translate(579.353676330103, 302.45276787666796)"><circle r="12" style="fill: rgb(0, 255, 0);"/><text dy=".15em">il-segreto-delle-decisioni</text></g><g class="node" transform="translate(514.2883448524024, 364.9463927264764)"><circle r="12" style="fill: rgb(0, 255, 0);"/><text dy=".15em">educazione</text></g><g class="node" transform="translate(465.1533667692446, 503.6113520713966)"><circle r="12" style="fill: rgb(0, 255, 0);"/><text dy=".15em"/></g><g class="node" transform="translate(446.8599057645338, 453.30655808826725)"><circle r="12" style="fill: rgb(0, 255, 0);"/><text dy=".15em"/></g><g class="node" transform="translate(420.8180828979413, 562.4214036658238)"><circle r="12" style="fill: rgb(0, 255, 0);"/><text dy=".15em"/></g><g class="node" transform="translate(392.6679540889518, 693.5516006288447)"><circle r="12" style="fill: rgb(0, 255, 0);"/><text dy=".15em"/></g><g class="node" transform="translate(449.44379416160865, 708.1173154201886)"><circle r="12" style="fill: rgb(0, 255, 0);"/><text dy=".15em"/></g><g class="node" transform="translate(606.1957281368203, 290.68369676167276)"><circle r="12" style="fill: rgb(0, 255, 0);"/><text dy=".15em">3-azioni-da-comprare-e-non-vendere-mai-per-tutta-la-vita</text></g><g class="node" transform="translate(661.5427969843316, 239.7383417732743)"><circle r="12" style="fill: rgb(0, 255, 255);"/><text dy=".15em">reinnovame.com</text></g><g class="node" transform="translate(568.7470854292386, 329.44286504100535)"><circle r="12" style="fill: rgb(0, 255, 0);"/><text dy=".15em">come-pensa-un-ricco-padre-ricco-padre-povero-di-kiyosaky</text></g><g class="node" transform="translate(448.73796448730474, 610.0991320984086)"><circle r="12" style="fill: rgb(0, 255, 255);"/><text dy=".15em"/></g><g class="node" transform="translate(430.14656818546575, 665.3521587727535)"><circle r="12" style="fill: rgb(0, 255, 255);"/><text dy=".15em"/></g><g class="node" transform="translate(698.3622515019651, 271.24886799836446)"><circle r="12" style="fill: rgb(0, 255, 0);"/><text dy=".15em">come-funziona</text></g><g class="node" transform="translate(661.6073385093823, 343.2391664917845)"><circle r="12" style="fill: rgb(0, 255, 0);"/><text dy=".15em">come-fare-8-000-followers-instagram-in-24hrs</text></g><g class="node" transform="translate(615.2922447350984, 336.3834498871185)"><circle r="12" style="fill: rgb(0, 255, 255);"/><text dy=".15em">education</text></g><g class="node" transform="translate(550.4423597919191, 398.9651937999851)"><circle r="12" style="fill: rgb(0, 255, 255);"/><text dy=".15em">psicologia-della-vendita-prezzo-vs-valore</text></g><g class="node" transform="translate(540.7756059116981, 484.15465155194954)"><circle r="12" style="fill: rgb(0, 255, 0);"/><text dy=".15em"/></g><g class="node" transform="translate(695.3899938444059, 413.743835773098)"><circle r="12" style="fill: rgb(0, 255, 0);"/><text dy=".15em">come-si-racconta-una-grande-storia-5-storytelling-tips</text></g><g class="node" transform="translate(518.3349248270888, 510.96573213355316)"><circle r="12" style="fill: rgb(0, 255, 0);"/><text dy=".15em"/></g><g class="node" transform="translate(466.4375954155381, 545.5388999979747)"><circle r="12" style="fill: rgb(0, 255, 255);"/><text dy=".15em"/></g><g class="node" transform="translate(495.9377766977971, 468.55089321749404)"><circle r="12" style="fill: rgb(0, 255, 255);"/><text dy=".15em">alice</text></g><g class="node" transform="translate(446.7993587524707, 478.1805884961475)"><circle r="12" style="fill: rgb(0, 255, 0);"/><text dy=".15em"/></g><g class="node" transform="translate(459.35945242693435, 433.4048729205768)"><circle r="12" style="fill: rgb(0, 255, 0);"/><text dy=".15em"/></g><g class="node" transform="translate(484.15657599322043, 422.44021381841554)"><circle r="12" style="fill: rgb(0, 255, 0);"/><text dy=".15em"/></g></g>
  </svg>