<?xml version="1.0" encoding="utf-8"?>
<!-- Generator: Adobe Illustrator 25.0.1, SVG Export Plug-In . SVG Version: 6.00 Build 0)  -->
<svg version="1.1" id="Layer_1" xmlns="http://www.w3.org/2000/svg" xmlns:xlink="http://www.w3.org/1999/xlink" x="0px" y="0px"
	 viewBox="0 0 100 100" style="enable-background:new 0 0 100 100;" xml:space="preserve">
<g>
	<path d="M30.5,86.4H20.1c-0.4,0-0.6-0.3-0.6-0.6c0-0.4,0.3-0.6,0.6-0.6h10.4c0.4,0,0.6,0.3,0.6,0.6C31.2,86.1,30.9,86.4,30.5,86.4z
		"/>
	<path d="M30.5,82.5H20.1c-0.4,0-0.6-0.3-0.6-0.6s0.3-0.6,0.6-0.6h10.4c0.4,0,0.6,0.3,0.6,0.6S30.9,82.5,30.5,82.5z"/>
	<path d="M30.5,78.6H20.1c-0.4,0-0.6-0.3-0.6-0.6c0-0.4,0.3-0.6,0.6-0.6h10.4c0.4,0,0.6,0.3,0.6,0.6C31.2,78.3,30.9,78.6,30.5,78.6z
		"/>
	<path d="M30.5,74.7H20.1c-0.4,0-0.6-0.3-0.6-0.6s0.3-0.6,0.6-0.6h10.4c0.4,0,0.6,0.3,0.6,0.6S30.9,74.7,30.5,74.7z"/>
	<path d="M25.9,70.8h-5.8c-0.4,0-0.6-0.3-0.6-0.6c0-0.4,0.3-0.6,0.6-0.6h5.8c0.4,0,0.6,0.3,0.6,0.6C26.5,70.5,26.2,70.8,25.9,70.8z"
		/>
	<path d="M33.8,73.5V89H16.9V66.2h10.3c-0.1-0.6-0.3-0.9-0.3-1.6v-1H16.8c-1.4,0-2.5,1.5-2.5,2.9v22.9c0,1.4,1.2,2.2,2.5,2.2h17
		c1.4,0,2.5-0.8,2.5-2.2V74.6C35.4,74.3,34.5,73.9,33.8,73.5z"/>
	<path d="M79.9,86.4H69.5c-0.4,0-0.6-0.3-0.6-0.6c0-0.4,0.3-0.6,0.6-0.6h10.4c0.4,0,0.6,0.3,0.6,0.6C80.5,86.1,80.3,86.4,79.9,86.4z
		"/>
	<path d="M79.9,82.5H69.5c-0.4,0-0.6-0.3-0.6-0.6s0.3-0.6,0.6-0.6h10.4c0.4,0,0.6,0.3,0.6,0.6S80.3,82.5,79.9,82.5z"/>
	<path d="M79.9,78.6H69.5c-0.4,0-0.6-0.3-0.6-0.6c0-0.4,0.3-0.6,0.6-0.6h10.4c0.4,0,0.6,0.3,0.6,0.6C80.5,78.3,80.3,78.6,79.9,78.6z
		"/>
	<path d="M79.9,74.7H69.5c-0.4,0-0.6-0.3-0.6-0.6s0.3-0.6,0.6-0.6h10.4c0.4,0,0.6,0.3,0.6,0.6S80.3,74.7,79.9,74.7z"/>
	<path d="M75.3,70.8h-4.5c-0.4,0-0.6-0.3-0.6-0.6c0-0.4,0.3-0.6,0.6-0.6h4.5c0.4,0,0.6,0.3,0.6,0.6C75.9,70.5,75.6,70.8,75.3,70.8z"
		/>
	<path d="M79.3,63.6h-6.2v1c0,0.9-0.1,0.8-0.5,1.6h5.3v3.5c0,1.4,1.2,2.3,2.6,2.3h2.6V89H66.2V73.6c-0.8,0.4-1.7,0.8-2.6,1.1v14.7
		c0,1.4,1.2,2.2,2.5,2.2h17c1.4,0,2.5-0.8,2.5-2.2V71.1L79.3,63.6z"/>
	<path d="M28.6,30.5h-8.4c-0.4,0-0.6-0.3-0.6-0.6c0-0.4,0.3-0.6,0.6-0.6h8.4c0.4,0,0.6,0.3,0.6,0.6C29.2,30.2,28.9,30.5,28.6,30.5z"
		/>
	<path d="M30.5,26.6H20.1c-0.4,0-0.6-0.3-0.6-0.6c0-0.4,0.3-0.6,0.6-0.6h10.4c0.4,0,0.6,0.3,0.6,0.6C31.2,26.3,30.9,26.6,30.5,26.6z
		"/>
	<path d="M30.5,22.7H20.1c-0.4,0-0.6-0.3-0.6-0.6c0-0.4,0.3-0.6,0.6-0.6h10.4c0.4,0,0.6,0.3,0.6,0.6C31.2,22.4,30.9,22.7,30.5,22.7z
		"/>
	<path d="M30.5,18.8H20.1c-0.4,0-0.6-0.3-0.6-0.6c0-0.4,0.3-0.6,0.6-0.6h10.4c0.4,0,0.6,0.3,0.6,0.6C31.2,18.5,30.9,18.8,30.5,18.8z
		"/>
	<path d="M25.9,14.9h-5.8c-0.4,0-0.6-0.3-0.6-0.6s0.3-0.6,0.6-0.6h5.8c0.4,0,0.6,0.3,0.6,0.6S26.2,14.9,25.9,14.9z"/>
	<path d="M26.9,35.1h0.1c0.1-0.6,0.2-1.3,0.4-1.9H16.9V11h11.7v2.5c0,1.4,1.2,2.6,2.6,2.6h2.6v10.3c0.8-0.5,1.7-0.8,2.6-1.2V14.8
		l-6.4-6.4H16.8c-1.4,0-2.5,1.2-2.5,2.5v22.2c0,1.4,1.2,2.5,2.5,2.5h10.1V35.1z"/>
	<path d="M79.9,30.5h-7.8c-0.4,0-0.6-0.3-0.6-0.6c0-0.4,0.3-0.6,0.6-0.6h7.8c0.4,0,0.6,0.3,0.6,0.6C80.5,30.2,80.3,30.5,79.9,30.5z"
		/>
	<path d="M79.9,26.6H69.5c-0.4,0-0.6-0.3-0.6-0.6c0-0.4,0.3-0.6,0.6-0.6h10.4c0.4,0,0.6,0.3,0.6,0.6C80.5,26.3,80.3,26.6,79.9,26.6z
		"/>
	<path d="M79.9,22.7H69.5c-0.4,0-0.6-0.3-0.6-0.6c0-0.4,0.3-0.6,0.6-0.6h10.4c0.4,0,0.6,0.3,0.6,0.6C80.5,22.4,80.3,22.7,79.9,22.7z
		"/>
	<path d="M79.9,18.8H69.5c-0.4,0-0.6-0.3-0.6-0.6c0-0.4,0.3-0.6,0.6-0.6h10.4c0.4,0,0.6,0.3,0.6,0.6C80.5,18.5,80.3,18.8,79.9,18.8z
		"/>
	<path d="M75.3,14.9h-5.8c-0.4,0-0.6-0.3-0.6-0.6s0.3-0.6,0.6-0.6h5.8c0.4,0,0.6,0.3,0.6,0.6S75.6,14.9,75.3,14.9z"/>
	<path d="M79.3,8.4H66.2c-1.4,0-2.5,1.2-2.5,2.5v13.7c0.9,0.4,1.8,0.8,2.6,1.2V11h11.7v2.5c0,1.4,1.2,2.6,2.6,2.6h2.6v17H72.8
		c0.1,0.4,0.2,0.8,0.2,1.2l0.1,0.1v1.3h10.1c1.4,0,2.5-1.2,2.5-2.5V14.8L79.3,8.4z"/>
	<path d="M50.1,28.9c9.8,0,17.2,3.9,17.2,7.4c0,3.5-7.3,7.4-17.2,7.4s-17.2-3.9-17.2-7.4C32.9,32.8,40.3,28.9,50.1,28.9 M50.1,26.3
		c-10.9,0-19.8,4.5-19.8,10s8.8,10,19.8,10s19.8-4.5,19.8-10C69.8,30.8,61,26.3,50.1,26.3L50.1,26.3z"/>
	<path d="M32.8,48.6c4,2.3,9.9,3.7,17.3,3.7c7.3,0,13.2-1.4,17.2-3.7v1.6c0,3.2-6.9,6.8-17.2,6.8c-10.3,0-17.3-3.5-17.3-6.8V48.6
		 M69.8,41.4c-0.6,5.2-9.3,8.4-19.8,8.4s-19.2-3.2-19.9-8.4v8.8c0,5.5,9,9.4,19.9,9.4s19.8-3.8,19.8-9.4V41.4L69.8,41.4z"/>
	<path d="M32.8,61.5c4,2.3,9.9,3.7,17.3,3.7c7.3,0,13.2-1.4,17.2-3.7v1.6c0,3.2-6.9,6.8-17.2,6.8c-10.3,0-17.3-3.5-17.3-6.8V61.5
		 M69.8,54.3c-0.6,5.2-9.3,8.4-19.8,8.4s-19.2-3.2-19.9-8.4v8.8c0,5.5,9,9.4,19.9,9.4s19.8-3.8,19.8-9.4V54.3L69.8,54.3z"/>
</g>
</svg>
