<?xml version="1.0" encoding="utf-8"?>
<!-- Generator: Adobe Illustrator 25.0.1, SVG Export Plug-In . SVG Version: 6.00 Build 0)  -->
<svg version="1.1" id="Layer_1" xmlns="http://www.w3.org/2000/svg" xmlns:xlink="http://www.w3.org/1999/xlink" x="0px" y="0px"
	 viewBox="0 0 100 100" style="enable-background:new 0 0 100 100;" xml:space="preserve">
<g>
	<path d="M49.9,10c-0.7,0-1.3,0.6-1.3,1.3v5.4c-17.8,0.7-31.9,15.4-31.9,33.2c0,4.6,1,9.1,2.8,13.3c-0.1,0-0.1,0-0.2,0h-8
		c-0.7,0-1.3,0.6-1.3,1.3v23.9c0,0.7,0.6,1.3,1.3,1.3h8c0.7,0,1.3-0.6,1.3-1.3V65.6c0.8,1.5,1.7,2.9,2.7,4.2v12
		c0,0.7,0.6,1.3,1.3,1.3h8c0.7,0,1.3-0.6,1.3-1.3v-2.8C50,87.9,70.2,82,79,65.9c2.5-4.5,3.9-9.6,4.1-14.7h5.4c0.7,0,1.3-0.6,1.3-1.3
		C89.8,27.9,71.9,10,49.9,10z M18,87.1h-5.3V65.9H18V87.1z M31.3,80.5H26V61.9h5.3V80.5z M49.9,80.5c-5.6,0-11.2-1.6-16-4.5V60.5
		c0-0.7-0.6-1.3-1.3-1.3h-8c-0.7,0-1.3,0.6-1.3,1.3V65C15,50.3,20.1,31.6,34.8,23.3c4.2-2.4,8.9-3.8,13.8-4v30.6
		c0,0.4,0.1,0.7,0.4,0.9l21.6,21.6C65,77.6,57.6,80.5,49.9,80.5z M72.5,70.5L53.1,51.2h27.3C80.2,58.4,77.3,65.2,72.5,70.5z
		 M51.2,48.6V12.7c19.5,0.7,35.2,16.4,35.9,35.9H51.2z"/>
	<path d="M45.9,52.6h-8c-0.7,0-1.3,0.6-1.3,1.3v16c0,0.7,0.6,1.3,1.3,1.3h8c0.7,0,1.3-0.6,1.3-1.3v-16
		C47.2,53.2,46.6,52.6,45.9,52.6z M44.6,68.5h-5.3V55.2h5.3V68.5z"/>
</g>
</svg>
