<?xml version="1.0" encoding="utf-8"?>
<!-- Generator: Adobe Illustrator 25.0.1, SVG Export Plug-In . SVG Version: 6.00 Build 0)  -->
<svg version="1.1" id="Layer_1" xmlns="http://www.w3.org/2000/svg" xmlns:xlink="http://www.w3.org/1999/xlink" x="0px" y="0px"
	 viewBox="0 0 100 100" style="enable-background:new 0 0 100 100;" xml:space="preserve">
<g>
	<path d="M11.2,80.6c0-2.3,1.8-4.1,4.1-4.1h13.6c2.3,0,4.1,1.8,4.1,4.1v10.9h2.7V80.6c0-3.8-3.1-6.8-6.8-6.8h-0.7
		c1.3-1.4,2.1-3.4,2.1-5.4c0-4.5-3.7-8.2-8.2-8.2s-8.2,3.7-8.2,8.2c0,2.1,0.8,4,2.1,5.4h-0.7c-3.8,0-6.8,3.1-6.8,6.8v10.9h2.7V80.6z
		 M16.6,68.4c0-3,2.4-5.4,5.4-5.4s5.4,2.4,5.4,5.4s-2.4,5.4-5.4,5.4S16.6,71.4,16.6,68.4z"/>
	<rect x="13.9" y="80.6" width="2.7" height="10.9"/>
	<rect x="27.5" y="80.6" width="2.7" height="10.9"/>
	<path d="M48,91.5c0.8,0,1.4-0.6,1.4-1.4V79.3c0-0.8-0.6-1.4-1.4-1.4h-5.4c-0.8,0-1.4,0.6-1.4,1.4v10.9c0,0.8,0.6,1.4,1.4,1.4H48z
		 M43.9,80.6h2.7v8.2h-2.7V80.6z"/>
	<path d="M60.2,91.5c0.8,0,1.4-0.6,1.4-1.4V73.8c0-0.8-0.6-1.4-1.4-1.4h-5.4c-0.8,0-1.4,0.6-1.4,1.4v16.3c0,0.8,0.6,1.4,1.4,1.4
		H60.2z M56.1,75.2h2.7v13.6h-2.7V75.2z"/>
	<path d="M72.5,64.3H67c-0.8,0-1.4,0.6-1.4,1.4v24.5c0,0.8,0.6,1.4,1.4,1.4h5.4c0.8,0,1.4-0.6,1.4-1.4V65.7
		C73.8,64.9,73.2,64.3,72.5,64.3z M71.1,88.8h-2.7V67h2.7V88.8z"/>
	<path d="M34.9,65.5l11.7-5.4l1.8,3.7c0.2,0.5,0.7,0.8,1.2,0.8h0c0.5,0,1-0.3,1.2-0.8l3.8-7.9c0.2-0.4,0.2-0.8,0-1.2
		c-0.2-0.4-0.5-0.6-0.9-0.7l-8.5-1.9c-0.5-0.1-1,0.1-1.4,0.5c-0.3,0.4-0.4,1-0.2,1.4l1.8,3.7l-11.7,5.4L34.9,65.5z M51.4,56.3
		l-1.8,3.8l-2.3-4.7L51.4,56.3z"/>
	<path d="M60.1,41.7c0.9,0.8,1.5,1.9,1.5,3.1V48c0,0.8,0.6,1.4,1.4,1.4h13.6c0.8,0,1.4-0.6,1.4-1.4v-3.1c0-1.2,0.5-2.3,1.4-3.1
		c3.4-2.9,5.4-7,5.4-11.5c0-4.3-1.8-8.3-5-11.2c-3.2-2.8-7.4-4.2-11.7-3.7c-7,0.8-12.5,6.4-13.2,13.4C54.4,33.7,56.3,38.5,60.1,41.7
		z M57.5,29c0.6-5.7,5.1-10.3,10.8-10.9c3.6-0.4,6.9,0.7,9.6,3c2.6,2.3,4.1,5.7,4.1,9.1c0,3.6-1.6,7.1-4.4,9.4
		c-1.5,1.3-2.4,3.2-2.4,5.2v1.8h-4.1v-5.4c0-0.4-0.2-0.8-0.5-1.1l-5.9-4.7c-0.3-0.2-0.4-0.5-0.4-0.8V34c0-0.6,0.5-1,1-1h0.4
		c0.4,0,0.7,0.2,0.9,0.5c0.7,1.1,1.9,1.7,3.1,1.7s2.4-0.6,3.1-1.7c0.2-0.3,0.5-0.5,0.9-0.5h0.4c0.6,0,1.1,0.5,1.1,1v0.7
		c0,0.3-0.1,0.5-0.3,0.7l-3.4,3.4l1.9,1.9l3.4-3.4c0.7-0.7,1.1-1.7,1.1-2.7V34c0-2.1-1.7-3.8-3.8-3.8h-0.4c-1.3,0-2.4,0.6-3.1,1.7
		c-0.3,0.4-0.7,0.5-0.9,0.5s-0.6,0-0.9-0.5c-0.7-1.1-1.9-1.7-3.1-1.7h-0.4c-2.1,0-3.8,1.7-3.8,3.8v0.5c0,1.2,0.5,2.2,1.4,2.9
		l5.4,4.3v4.8h-4.1v-1.8c0-2-0.9-3.9-2.4-5.2C58.8,37,57.2,33.1,57.5,29z"/>
	<rect x="62.9" y="50.7" width="13.6" height="2.7"/>
	<path d="M73.8,54.8h-8.2c-0.8,0-1.4,0.6-1.4,1.4c0,3,2.4,5.4,5.4,5.4s5.4-2.4,5.4-5.4C75.2,55.4,74.6,54.8,73.8,54.8z M69.7,58.8
		c-1,0-1.9-0.5-2.4-1.4h4.7C71.6,58.3,70.7,58.8,69.7,58.8z"/>
	<rect x="68.4" y="8.5" width="2.7" height="4.1"/>
	<rect x="87.4" y="28.9" width="4.1" height="2.7"/>
	<rect x="48" y="28.9" width="4.1" height="2.7"/>
	<rect x="82.3" y="42.2" transform="matrix(0.7071 -0.7071 0.7071 0.7071 -6.7523 72.1349)" width="2.7" height="4.1"/>
	<rect x="54.4" y="14.3" transform="matrix(0.7071 -0.7071 0.7071 0.7071 4.8112 44.218)" width="2.7" height="4.1"/>
	<rect x="81.7" y="14.9" transform="matrix(0.7071 -0.7071 0.7071 0.7071 12.9879 63.9582)" width="4.1" height="2.7"/>
	<rect x="53.7" y="42.9" transform="matrix(0.7071 -0.7071 0.7071 0.7071 -14.929 52.3946)" width="4.1" height="2.7"/>
</g>
</svg>
