<?xml version="1.0" encoding="utf-8"?>
<!-- Generator: Adobe Illustrator 25.0.1, SVG Export Plug-In . SVG Version: 6.00 Build 0)  -->
<svg version="1.1" xmlns="http://www.w3.org/2000/svg" xmlns:xlink="http://www.w3.org/1999/xlink" x="0px" y="0px"
	 viewBox="0 0 100 100" style="enable-background:new 0 0 100 100;" xml:space="preserve">
<g id="Layer_2">
</g>
<g id="Layer_1">
	<g>
		<path d="M79.4,8.9H32.7c-2.5,0-4.6,2.1-4.6,4.6V21h-7.5c-2.5,0-4.6,2.1-4.6,4.6v61c0,2.5,2.1,4.6,4.6,4.6h46.7
			c2.5,0,4.6-2.1,4.6-4.6v-7.5h7.5c2.5,0,4.6-2.1,4.6-4.6v-61C83.9,11,81.9,8.9,79.4,8.9z M68.2,86.5c0,0.4-0.3,0.8-0.9,0.8H20.6
			c-0.4,0-0.8-0.3-0.8-0.8v-61c0-0.4,0.3-0.8,0.8-0.8h7.5v49.7c0,2.5,2.1,4.6,4.6,4.6h35.5V86.5z M80.2,74.5c0,0.4-0.3,0.9-0.9,0.9
			H32.7c-0.4,0-0.9-0.3-0.9-0.9v-61c0-0.4,0.3-0.9,0.9-0.9h46.7c0.4,0,0.9,0.3,0.9,0.9L80.2,74.5L80.2,74.5z"/>
		<path d="M69.9,52.8H42.1c-1,0-1.9,0.9-1.9,1.9c0,1,0.9,1.9,1.9,1.9h27.8c1,0,1.9-0.9,1.9-1.9C71.8,53.6,70.9,52.8,69.9,52.8z"/>
		<path d="M69.9,64H42.1c-1,0-1.9,0.9-1.9,1.9c0,1,0.9,1.9,1.9,1.9h27.8c1,0,1.9-0.9,1.9-1.9C71.8,64.9,70.9,64,69.9,64z"/>
		<path d="M69.9,41.6H42.1c-1,0-1.9,0.9-1.9,1.9c0,1,0.9,1.9,1.9,1.9h27.8c1,0,1.9-0.9,1.9-1.9C71.8,42.4,70.9,41.6,69.9,41.6z"/>
		<path d="M45.4,34.4h3.4c0.4,0,0.7-0.3,0.7-0.7v-5.4c0-0.4-0.3-0.7-0.7-0.7h-3.4c-0.4,0-0.7,0.3-0.7,0.7v5.4
			C44.7,34.1,45.1,34.4,45.4,34.4z"/>
		<path d="M53.8,34.4h3.4c0.4,0,0.7-0.3,0.7-0.7v-9.3c0-0.4-0.3-0.7-0.7-0.7h-3.4c-0.4,0-0.7,0.3-0.7,0.7v9.2
			C53.1,34.1,53.5,34.4,53.8,34.4z"/>
		<path d="M62.2,34.4h3.4c0.4,0,0.7-0.3,0.7-0.7v-13c0-0.3-0.3-0.7-0.7-0.7h-3.4c-0.4,0-0.7,0.3-0.7,0.7v13
			C61.5,34.1,61.9,34.4,62.2,34.4z"/>
	</g>
</g>
</svg>
