<?xml version="1.0" encoding="utf-8"?>
<!-- Generator: Adobe Illustrator 25.0.1, SVG Export Plug-In . SVG Version: 6.00 Build 0)  -->
<svg version="1.1" xmlns="http://www.w3.org/2000/svg" xmlns:xlink="http://www.w3.org/1999/xlink" x="0px" y="0px"
	 viewBox="0 0 100 100" style="enable-background:new 0 0 100 100;" xml:space="preserve">
<g id="Layer_2">
</g>
<g id="Layer_1">
	<path d="M82.8,58.1c-0.5,0.3-1,0.4-1.5,0.4h-3.9v14.9c0,2.1-1.6,3.8-3.7,3.9l-7.9,1.6v11.7c0,0.8-0.7,1.5-1.5,1.5h-7.9
		c-0.8,0-1.5-0.7-1.5-1.5v-1.4l-14.5-2.5c-0.5-0.1-0.9-0.6-0.9-1.2c0-0.5,0.4-1.1,0.9-1.2l9-1.5l-9-1.5c-0.5-0.1-0.9-0.6-0.9-1.2
		s0.4-1.1,0.9-1.2l14.5-2.5V72c0-4.9,1.6-9.6,4.7-13.8c1.9-2.5,2.8-5.5,2.8-8.6c0-4.2-1.8-8.2-4.9-11c-3.2-2.8-7.2-4.1-11.4-3.6
		c-6.9,0.8-12.2,6.3-12.8,13.2c-0.3,3.7,0.8,7.3,3,10.3c1.1,1.4,1.9,2.9,2.6,4.6c0.2,0.6,0,1.2-0.6,1.5c-0.6,0.2-1.2,0-1.5-0.6
		c-0.6-1.5-1.4-2.9-2.4-4.1c-2.6-3.4-3.9-7.6-3.5-11.9c0.7-8,6.9-14.4,14.9-15.4c4.9-0.5,9.6,0.9,13.2,4.2c3.6,3.2,5.6,7.8,5.6,12.7
		c0,3.6-1.2,7.1-3.2,10c-2.8,3.9-4.2,8.1-4.2,12.5v5.3l0,0c0,0.1,0,0.1,0,0.2v0.1c0,0.1,0,0.1,0,0.2v0.1c0,0,0,0.1-0.1,0.1
		c0,0,0,0.1-0.1,0.1l-0.1,0.1l-0.1,0.1L56.7,78l-0.1,0.1c0,0-0.1,0-0.1,0.1c0,0-0.1,0-0.1,0.1h-0.1c0,0-0.1,0-0.2,0.1l0,0l-9,1.6
		l9,1.5c0.5,0.1,0.9,0.6,0.9,1.2s-0.4,1-0.9,1.2l-9.1,1.8l9,1.5c0.5,0.1,0.9,0.6,0.9,1.2v1.5h6.4V78.4c0-0.9,0.8-1.7,1.7-1.7
		l8.2-1.7c0.9,0,1.7-0.8,1.7-1.7V57.8c0-0.9,0.8-1.7,1.7-1.7h4.6c0.6,0,1-0.6,0.8-1.2l-6.6-14.6v-0.6c0-0.1,0-0.1,0-0.2
		c0.3-2.3,0.3-6.1-0.1-8.3L75.2,30c0-0.1,0-0.1,0-0.2l-0.3-1.1c-0.4-1.7-1.2-3.5-1.9-5.1C69.2,16.5,62.3,12,53,10.5
		c-1.5-0.2-3.2-0.4-4.8-0.4c-9.4,0-20.4,3.9-26.3,13.5c-0.9,1.5-1.8,3.2-2.3,4.9c0,0.1,0,0.2-0.1,0.2c-0.1,0.2-0.3,1-0.4,1.3
		c-0.1,0.3-0.3,1.2-0.3,1.2c-2.8,10.5-0.2,20,8,28l0.3,0.3c2.2,2.2,3.4,5.2,3.4,8.3v0.7h16V59c0-0.6,0.5-1.2,1.2-1.2
		s1.2,0.5,1.2,1.2v10.7c0,0.6-0.5,1.2-1.2,1.2H29.9c-0.8,0-1.5-0.7-1.5-1.5v-1.5c0-2.5-1-4.9-2.8-6.7l-0.2-0.2
		c-8.7-8.5-11.6-18.6-8.6-30c0.1-0.2,0.2-1,0.3-1.2c0-0.2,0.1-0.2,0.2-0.4c0.1-0.2,0.2-0.7,0.2-0.8v-0.2v-0.1V28V28
		c0.5-1.7,1.3-3.3,2.5-5.4C26.6,11.7,38.8,7.9,48.2,7.9c1.8,0,3.5,0.2,5.2,0.4c10,1.5,17.5,6.5,21.5,14.3c0,0,0,0.1,0.1,0.1
		c1,2.1,1.7,3.9,2.1,5.5l0.3,1.1c0.1,0.2,0.1,0.4,0.1,0.5l0.2,1.1c0.4,2.5,0.4,6.4,0.1,8.8v0.2l6.4,14.3c0,0.1,0.1,0.1,0.1,0.2
		C84.8,55.7,84.2,57.3,82.8,58.1z"/>
</g>
</svg>
